<?xml version="1.0" standalone="no"?>
<!DOCTYPE svg PUBLIC "-//W3C//DTD SVG 20010904//EN"
 "http://www.w3.org/TR/2001/REC-SVG-20010904/DTD/svg10.dtd">
<svg version="1.0" xmlns="http://www.w3.org/2000/svg"
 width="790.000000pt" height="790.000000pt" viewBox="0 0 790.000000 790.000000"
 preserveAspectRatio="xMidYMid meet">
<metadata>
Created by potrace 1.11, written by Peter Selinger 2001-2013
</metadata>
<g transform="translate(0.000000,790.000000) scale(0.100000,-0.100000)"
fill="#000000" stroke="none">
<path d="M3785 7620 c-66 -8 -187 -39 -250 -63 -22 -8 -60 -23 -85 -32 -25 -9
-58 -22 -75 -30 -16 -7 -45 -19 -62 -26 -18 -8 -33 -17 -33 -21 0 -5 -7 -8
-15 -8 -8 0 -15 -4 -15 -10 0 -5 -5 -10 -11 -10 -15 0 -32 -19 -72 -81 -19
-30 -67 -85 -106 -124 -39 -38 -71 -75 -71 -82 0 -7 -9 -17 -20 -23 -12 -6
-20 -21 -20 -36 0 -14 -8 -41 -19 -62 -10 -20 -22 -53 -26 -72 -4 -19 -11 -37
-16 -40 -4 -3 -11 -28 -14 -55 -4 -28 -11 -57 -15 -65 -14 -30 -19 -381 -6
-475 10 -77 39 -200 48 -203 4 -2 8 -15 8 -29 0 -32 59 -223 69 -223 4 0 13
-19 20 -42 14 -47 107 -219 125 -230 19 -13 100 18 90 34 -3 4 3 8 13 8 10 0
27 7 37 15 10 8 23 12 27 9 5 -3 9 -1 9 4 0 5 15 15 33 22 72 28 87 35 87 42
0 5 8 8 18 8 10 0 22 3 26 7 4 4 31 13 59 20 29 6 77 19 107 28 133 38 269 52
435 43 197 -11 291 -28 310 -57 3 -6 23 -11 44 -11 20 0 46 -7 57 -15 10 -8
28 -15 39 -15 21 0 86 -40 125 -77 13 -12 27 -20 31 -17 5 3 14 -4 21 -16 7
-11 20 -20 28 -20 9 0 22 -6 29 -12 10 -11 19 -6 44 23 49 55 67 82 67 97 0 7
7 20 15 28 8 9 15 24 15 35 0 10 4 19 8 19 4 0 8 9 9 20 1 11 11 32 21 45 18
22 36 80 45 140 2 11 8 29 14 40 6 11 13 34 16 50 7 37 14 68 32 154 20 93 14
463 -9 541 -9 30 -19 69 -22 86 -3 18 -14 56 -26 85 -11 30 -28 74 -37 99 -9
25 -19 47 -23 48 -5 2 -8 10 -8 18 0 8 -4 14 -10 14 -5 0 -10 6 -10 13 0 7 -9
23 -19 34 -11 12 -18 23 -16 25 3 2 -13 24 -35 48 -22 24 -40 48 -40 53 0 16
-152 157 -170 157 -10 0 -20 7 -24 15 -3 8 -13 15 -21 15 -9 0 -23 7 -31 15
-8 8 -33 19 -55 25 -22 6 -43 18 -46 26 -3 7 -13 14 -22 14 -9 1 -34 8 -56 16
-22 8 -60 17 -85 20 -25 3 -61 9 -80 14 -49 13 -333 20 -405 10z m-219 -387
c3 -14 -5 -27 -24 -39 -15 -9 -34 -25 -42 -33 -8 -9 -32 -27 -52 -41 -20 -13
-34 -28 -32 -32 3 -5 -8 -21 -24 -38 -16 -16 -33 -41 -36 -56 -4 -16 -16 -35
-27 -45 -10 -9 -22 -31 -25 -48 -4 -17 -11 -34 -15 -37 -5 -3 -7 -10 -4 -15 4
-5 3 -9 -2 -9 -4 0 -9 -21 -11 -47 -2 -26 -7 -50 -11 -53 -5 -3 -11 -30 -14
-60 -4 -30 -10 -72 -15 -92 -6 -20 -7 -39 -4 -42 3 -4 0 -6 -6 -6 -7 0 -11 -6
-10 -12 2 -7 -7 -14 -19 -16 -36 -5 -56 47 -57 146 0 46 4 86 10 90 5 4 9 17
8 29 -1 13 5 34 12 48 7 14 15 38 17 54 3 15 10 38 17 50 6 12 13 32 16 44 2
11 10 25 19 29 8 5 15 15 15 22 0 7 9 23 20 36 11 13 20 27 20 32 0 5 5 6 12
2 8 -5 9 -2 5 10 -4 11 6 30 33 59 22 23 40 45 40 49 0 5 9 8 19 8 11 0 23 5
26 10 3 6 15 10 26 10 10 0 19 4 19 9 0 12 38 18 69 11 14 -4 25 -14 27 -27z"/>
<path d="M5118 6884 c-17 -5 -24 -25 -18 -49 1 -5 9 -55 16 -110 28 -202 28
-260 -1 -545 -3 -30 -10 -77 -16 -105 -10 -49 -13 -64 -23 -115 -2 -14 -11
-38 -20 -55 -8 -16 -18 -45 -21 -64 -7 -41 -22 -71 -35 -71 -6 0 -10 -8 -10
-17 0 -35 -56 -162 -80 -183 -31 -27 -54 -100 -31 -100 20 0 114 -115 158
-194 16 -26 38 -60 50 -75 24 -30 113 -202 113 -218 0 -6 9 -30 20 -54 11 -24
20 -56 20 -71 0 -14 5 -28 11 -30 6 -2 13 -15 14 -28 2 -14 10 -44 19 -67 8
-24 18 -60 21 -81 3 -21 8 -49 10 -62 3 -14 8 -45 11 -70 3 -25 7 -56 10 -70
5 -26 14 -156 14 -202 0 -24 2 -26 28 -18 107 34 187 66 216 85 19 13 43 26
54 29 10 4 27 15 37 26 10 11 23 20 29 20 6 0 40 27 75 60 35 33 67 60 72 60
5 0 9 4 9 9 0 5 19 29 43 54 77 83 94 102 105 124 7 12 18 27 25 35 7 7 32 45
55 83 23 39 45 75 50 80 4 6 8 12 9 15 0 3 9 23 21 45 31 62 88 211 110 290
44 158 55 255 48 432 -7 181 -7 184 -31 318 -28 156 -89 321 -159 435 -23 38
-86 109 -148 170 -133 129 -134 130 -172 150 -17 9 -44 24 -61 33 -16 9 -38
17 -48 17 -10 0 -16 4 -13 8 2 4 -3 8 -12 9 -9 1 -56 13 -103 26 -48 14 -106
28 -130 32 -57 8 -319 15 -341 9z"/>
<path d="M2420 6842 c-129 -9 -344 -70 -450 -128 -107 -59 -229 -160 -306
-255 -49 -60 -163 -279 -175 -337 -1 -4 -3 -11 -4 -17 -4 -12 -22 -112 -34
-185 -15 -92 -13 -338 4 -456 15 -105 54 -264 97 -389 33 -101 142 -315 207
-410 77 -113 205 -253 279 -305 32 -22 82 -58 112 -79 62 -44 165 -87 244
-103 74 -14 77 -31 26 -154 -45 -108 -48 -123 -22 -125 40 -3 145 1 149 5 3 2
-2 40 -11 83 -42 204 -49 431 -21 598 57 334 182 583 407 807 l107 107 -54
103 c-78 149 -148 354 -180 525 -30 162 -39 266 -40 433 0 102 3 206 7 232 5
38 4 48 -10 53 -15 6 -239 4 -332 -3z m-226 -318 c12 -31 6 -54 -13 -54 -11 0
-23 -4 -26 -10 -3 -5 3 -10 14 -10 12 0 21 -7 21 -15 0 -9 -9 -15 -24 -15 -14
0 -28 -4 -31 -10 -3 -5 -13 -10 -20 -10 -8 0 -24 -8 -36 -17 -11 -10 -30 -26
-41 -35 -29 -24 -35 -23 -41 12 -4 17 -11 30 -16 30 -5 0 -14 -13 -21 -30 -8
-18 -20 -30 -31 -30 -13 0 -19 -7 -18 -22 0 -13 3 -17 6 -10 7 17 30 15 37 -4
10 -25 7 -34 -10 -34 -8 0 -13 -4 -10 -9 3 -5 -1 -11 -9 -14 -8 -4 -23 -24
-35 -47 -23 -44 -54 -54 -65 -19 -4 11 -9 18 -13 15 -3 -3 3 -22 14 -41 17
-31 17 -37 4 -45 -8 -5 -12 -10 -7 -10 4 0 1 -13 -8 -30 -8 -16 -15 -32 -15
-35 0 -3 -7 -16 -16 -30 -8 -13 -17 -32 -19 -42 -1 -10 -8 -17 -14 -15 -6 1
-10 -1 -10 -5 6 -35 -2 -44 -33 -40 -24 2 -33 9 -34 23 -1 10 -3 24 -4 29 -4
18 2 70 9 75 3 3 7 21 9 40 1 19 7 37 12 38 6 2 10 12 10 21 0 10 9 26 20 36
11 10 18 20 15 23 -2 3 7 18 20 34 14 16 25 35 25 42 0 7 10 24 23 37 12 13
35 41 50 62 16 21 33 34 39 31 6 -4 8 -3 5 3 -6 10 35 53 51 53 4 0 14 9 22
20 8 11 18 20 22 20 3 0 19 5 35 12 15 6 34 10 41 9 7 -1 15 5 18 13 3 9 10
13 15 10 5 -3 17 0 26 5 26 15 50 13 57 -5z"/>
<path d="M2026 6418 c3 -4 9 -8 15 -8 5 0 9 4 9 8 0 5 -7 9 -15 9 -8 0 -12 -4
-9 -9z"/>
<path d="M1756 6112 c-3 -6 -1 -14 5 -17 15 -10 25 3 12 16 -7 7 -13 7 -17 1z"/>
<path d="M3855 5697 c-122 -10 -297 -53 -410 -102 -27 -12 -65 -28 -84 -35
-43 -17 -187 -101 -225 -132 -63 -50 -172 -147 -191 -169 -11 -13 -41 -49 -67
-80 -27 -31 -48 -61 -48 -67 0 -6 -3 -12 -8 -14 -14 -6 -88 -133 -122 -210
-26 -60 -38 -78 -54 -79 -17 -1 -18 -2 -3 -6 21 -5 22 6 -8 -105 -38 -144 -39
-153 -50 -323 -13 -198 25 -440 106 -668 31 -84 173 -380 199 -409 5 -7 21
-30 35 -50 77 -116 117 -167 235 -297 224 -248 386 -384 573 -479 141 -73 280
-79 426 -21 42 17 87 38 101 47 33 22 60 39 88 53 12 7 22 16 22 21 0 4 4 8
10 8 5 0 18 6 27 14 46 37 150 123 172 141 48 41 255 251 280 285 14 19 32 39
38 43 7 4 13 12 13 18 0 10 11 26 48 65 12 14 22 30 22 36 0 6 6 19 14 27 18
20 116 218 144 291 33 84 78 254 99 365 14 79 18 149 17 330 0 211 -3 241 -28
359 -15 72 -42 177 -61 233 -53 160 -163 377 -234 462 -47 55 -121 131 -129
131 -3 0 -12 7 -21 16 -55 53 -115 100 -183 142 -43 26 -78 53 -78 61 0 7 -6
11 -14 8 -7 -3 -26 3 -41 13 -16 11 -32 17 -37 14 -5 -3 -34 3 -66 14 -140 48
-310 65 -507 49z m-145 -438 c0 -5 5 -9 12 -9 7 0 25 -15 40 -32 39 -46 39
-105 -1 -150 -22 -26 -50 -40 -122 -63 -124 -39 -169 -65 -248 -144 -86 -86
-95 -99 -137 -184 -20 -40 -40 -80 -45 -89 -5 -10 -9 -26 -9 -36 0 -10 -3 -22
-7 -26 -4 -3 -8 -17 -10 -29 -2 -12 -10 -58 -17 -102 -8 -44 -17 -101 -21
-126 -12 -89 -94 -149 -169 -124 -81 28 -98 100 -71 295 5 42 24 129 32 150 3
8 7 20 8 25 6 25 46 116 80 185 63 125 179 265 280 336 37 27 150 85 173 89 9
2 17 4 17 5 0 1 27 9 60 19 64 18 155 24 155 10z m725 -644 c71 -14 155 -39
155 -46 0 -5 7 -9 15 -9 9 0 23 -16 32 -35 23 -47 9 -83 -41 -111 -48 -27 -93
-68 -93 -86 0 -7 -4 -66 -8 -132 -4 -65 -8 -207 -10 -315 -3 -222 -8 -271 -38
-356 -32 -93 -70 -146 -139 -199 -42 -32 -159 -82 -228 -97 -70 -16 -266 -12
-330 6 -30 9 -63 18 -73 20 -80 18 -178 72 -225 124 -50 54 -74 108 -79 176
-7 88 10 141 66 196 38 38 56 49 104 59 88 18 168 -9 224 -75 37 -43 47 -91
34 -159 -11 -61 -1 -93 36 -107 39 -15 89 -5 129 26 61 47 68 92 61 445 -3
168 -8 314 -11 325 -2 11 -5 29 -5 40 -1 32 -48 74 -95 86 -33 8 -46 18 -58
42 -15 32 -9 74 15 105 24 30 178 77 282 85 55 4 243 -1 280 -8z"/>
<path d="M3852 2360 c-13 -8 -98 -162 -110 -199 -23 -68 -12 -120 35 -169 43
-45 294 -33 426 19 24 10 27 17 27 55 0 71 -35 145 -137 293 -4 6 -233 7 -241
1z"/>
<path d="M3957 1914 c-6 -7 -2 -20 23 -79 43 -98 50 -120 50 -164 0 -53 -29
-120 -81 -191 -132 -176 -137 -227 -45 -390 72 -127 88 -182 72 -258 -6 -27
-8 -29 -66 -112 -77 -108 -84 -193 -31 -339 29 -80 75 -161 90 -161 47 0 51
29 15 103 -48 99 -65 151 -65 203 0 69 15 105 101 234 55 83 47 198 -20 305
-35 57 -59 107 -60 127 0 9 -4 20 -10 23 -17 11 -11 94 10 135 11 21 35 55 53
75 19 20 49 62 68 93 28 47 34 67 37 128 4 72 -12 151 -44 220 -19 39 -77 68
-97 48z"/>
</g>
</svg>
